<svg width="980" height="150" viewBox="0 0 980 150" xmlns="http://www.w3.org/2000/svg"><g fill="#47848F" fill-rule="evenodd"><path d="M206.34 120h53.926c1.534 0 2.832-1.298 2.832-2.832 0-1.534-1.298-2.832-2.832-2.832h-50.858V81.178h44.958c1.534 0 2.832-1.298 2.832-2.832 0-1.534-1.298-2.832-2.832-2.832h-44.958v-32.45h50.268c1.534 0 2.832-1.298 2.832-2.832 0-1.534-1.298-2.832-2.832-2.832H206.34c-1.652 0-3.068 1.416-3.068 3.068v76.464c0 1.652 1.416 3.068 3.068 3.068zm94.198-3.068c0 1.652 1.416 3.068 3.068 3.068h49.206c1.534 0 2.832-1.298 2.832-2.832 0-1.534-1.298-2.832-2.832-2.832h-46.138v-74.34c0-1.652-1.416-3.068-3.068-3.068-1.652 0-3.068 1.416-3.068 3.068v76.936zM394.853 120h53.926c1.533 0 2.83-1.298 2.83-2.832 0-1.534-1.297-2.832-2.83-2.832h-50.86V81.178h44.96c1.533 0 2.83-1.298 2.83-2.832 0-1.534-1.297-2.832-2.83-2.832h-44.96v-32.45h50.27c1.533 0 2.83-1.298 2.83-2.832 0-1.534-1.297-2.832-2.83-2.832h-53.337c-1.652 0-3.068 1.416-3.068 3.068v76.464c0 1.652 1.416 3.068 3.068 3.068zm131.604 1.416c13.806 0 22.892-5.074 31.27-12.862.472-.472.944-1.18.944-2.124 0-1.534-1.415-2.95-2.95-2.95-.943 0-1.65.472-2.123.944-7.788 7.434-15.694 11.446-26.904 11.446-19.706 0-34.928-16.284-34.928-37.17v-.236c0-20.768 14.986-36.934 34.81-36.934 11.564 0 19.47 4.484 26.314 10.738.47.472 1.297.826 2.123.826 1.652 0 3.186-1.416 3.186-3.068 0-1.062-.59-1.888-1.18-2.478-8.025-6.844-16.64-11.564-30.327-11.564-23.836 0-41.3 19.352-41.3 42.716v.236c0 23.718 17.464 42.48 41.064 42.48zm90.776-4.012c0 1.652 1.416 3.068 3.068 3.068 1.653 0 3.07-1.416 3.07-3.068v-74.34h26.43c1.535 0 2.833-1.298 2.833-2.832 0-1.534-1.298-2.832-2.832-2.832h-59c-1.533 0-2.83 1.298-2.83 2.832 0 1.534 1.297 2.832 2.83 2.832h26.433v74.34zm71.778 0c0 1.652 1.417 3.068 3.07 3.068 1.65 0 3.067-1.416 3.067-3.068V85.78h27.022l25.37 33.04c.707.944 1.533 1.652 2.713 1.652 1.652 0 3.186-1.534 3.186-3.186 0-.708-.355-1.416-.945-2.124l-23.482-30.444c13.924-1.888 24.19-9.794 24.19-23.6v-.236c0-5.9-2.36-11.446-6.254-15.34-4.957-4.956-13.1-8.142-23.247-8.142H692.08c-1.653 0-3.07 1.416-3.07 3.068v76.936zm6.137-37.17v-37.17h28.202c14.985 0 23.717 6.962 23.717 18.054v.236c0 11.918-10.266 18.88-24.072 18.88h-27.848zm135.143 41.182c25.016 0 41.654-20.178 41.654-42.716v-.236c0-22.538-16.402-42.48-41.418-42.48S788.872 56.162 788.872 78.7v.236c0 22.538 16.402 42.48 41.418 42.48zm.236-5.546c-20.414 0-35.282-16.756-35.282-37.17v-.236c0-20.414 14.632-36.934 35.046-36.934s35.282 16.756 35.282 37.17v.236c0 20.414-14.632 36.934-35.046 36.934zm80.51 1.652c0 1.652 1.298 2.95 2.95 2.95 1.652 0 2.95-1.298 2.95-2.95V46.368l56.758 71.98c.944 1.18 1.888 2.006 3.068 2.006h.472c1.416 0 2.478-1.18 2.478-2.596v-77.88c0-1.652-1.298-2.95-2.95-2.95-1.652 0-2.95 1.298-2.95 2.95v69.62l-55.696-70.682c-.826-1.062-1.77-1.77-3.068-1.77h-.944c-1.652 0-3.068 1.416-3.068 3.068v77.408zM48.827 32.168c-19.504-3.553-34.926.165-41.072 10.81-4.586 7.945-3.275 18.477 3.18 29.735.55.958 1.77 1.29 2.73.74.958-.55 1.29-1.77.74-2.73C8.59 60.584 7.46 51.494 11.22 44.98c5.105-8.844 18.86-12.16 36.89-8.877 1.087.198 2.128-.522 2.326-1.61.198-1.086-.523-2.127-1.61-2.325zm-27.75 54.23c7.887 8.666 18.133 16.795 29.817 23.54 28.293 16.336 58.412 20.702 73.256 10.58.913-.622 1.148-1.866.526-2.78-.622-.91-1.867-1.147-2.78-.525-13.284 9.06-41.896 4.912-69.002-10.738C41.56 99.93 31.638 92.06 24.036 83.705c-.744-.816-2.008-.876-2.825-.133-.816.744-.876 2.01-.133 2.826z"/><path d="M119.415 83.965c12.77-15.087 17.23-30.26 11.097-40.885-4.514-7.816-14.054-11.944-26.734-12.108-1.105-.015-2.012.87-2.026 1.973-.014 1.105.87 2.012 1.974 2.026 11.404.15 19.623 3.705 23.32 10.11 5.096 8.825 1.12 22.356-10.684 36.3-.714.843-.61 2.105.234 2.82.843.713 2.105.608 2.82-.235zm-32.82-51.13c-11.548 2.473-23.838 7.31-35.642 14.125C21.746 63.822 2.693 88.687 5.34 106.716c.16 1.092 1.176 1.848 2.27 1.688 1.092-.16 1.848-1.176 1.688-2.27-2.35-16.007 15.71-39.576 43.655-55.71 11.45-6.61 23.35-11.295 34.48-13.68 1.08-.23 1.767-1.294 1.536-2.374-.233-1.08-1.296-1.768-2.376-1.536zM39.278 119.215c6.677 18.645 17.6 30.125 29.885 30.125 8.958 0 17.247-6.107 23.71-16.86.57-.945.263-2.174-.684-2.743-.947-.57-2.176-.263-2.745.684-5.81 9.663-12.944 14.92-20.282 14.92-10.204 0-19.947-10.24-26.12-27.474-.37-1.04-1.516-1.58-2.556-1.208-1.04.372-1.58 1.517-1.21 2.557zm60.99-3.647c3.458-11.046 5.314-23.79 5.314-37.068 0-33.134-11.596-61.697-28.114-69.03-1.01-.45-2.192.006-2.64 1.015-.448 1.01.007 2.19 1.016 2.64 14.732 6.54 25.738 33.65 25.738 65.375 0 12.883-1.797 25.223-5.13 35.873-.33 1.054.257 2.176 1.31 2.506 1.055.33 2.177-.258 2.507-1.312zM137.937 113.608c0-5.286-4.286-9.572-9.572-9.572-5.287 0-9.573 4.286-9.573 9.572 0 5.287 4.286 9.573 9.573 9.573 5.286 0 9.572-4.285 9.572-9.572zm-4 0c0 3.078-2.495 5.573-5.572 5.573-3.078 0-5.573-2.494-5.573-5.572 0-3.077 2.495-5.572 5.573-5.572 3.077 0 5.572 2.495 5.572 5.572z"/><path d="M9.823 123.18c5.287 0 9.572-4.285 9.572-9.572 0-5.286-4.285-9.572-9.572-9.572-5.287 0-9.572 4.286-9.572 9.572 0 5.287 4.286 9.573 9.573 9.573zm0-4c-3.077 0-5.572-2.494-5.572-5.572 0-3.077 2.496-5.572 5.573-5.572 3.078 0 5.572 2.495 5.572 5.572 0 3.078-2.494 5.573-5.572 5.573zM69.163 19.233c5.286 0 9.572-4.286 9.572-9.572S74.45.09 69.163.09c-5.287 0-9.573 4.286-9.573 9.573 0 5.287 4.286 9.573 9.573 9.573zm0-4c-3.078 0-5.573-2.495-5.573-5.572s2.495-5.572 5.573-5.572c3.077 0 5.572 2.495 5.572 5.573 0 3.078-2.495 5.573-5.572 5.573zM70.625 85.27c-3.74.808-7.423-1.57-8.232-5.307-.806-3.74 1.568-7.423 5.307-8.232 3.74-.807 7.422 1.57 8.232 5.308.808 3.74-1.568 7.422-5.307 8.232z"/></g></svg>